<svg width="15" height="15" viewBox="0 0 15 15" fill="none" xmlns="http://www.w3.org/2000/svg">
<rect width="15" height="15" rx="7.5" fill="#F5F5F5"/>
<path fill-rule="evenodd" clip-rule="evenodd" d="M3.39489 7.42048C5.58129 6.4679 7.03924 5.8399 7.76872 5.53648C9.85155 4.67016 10.2843 4.51967 10.5664 4.5147C10.6285 4.51361 10.7672 4.52898 10.8571 4.6019C10.9329 4.66347 10.9538 4.74664 10.9638 4.80501C10.9738 4.86338 10.9862 4.99636 10.9763 5.10026C10.8635 6.28618 10.3751 9.16411 10.1266 10.4924C10.0215 11.0544 9.81448 11.2429 9.61407 11.2613C9.17853 11.3014 8.84781 10.9735 8.42596 10.6969C7.76587 10.2642 7.39295 9.99488 6.75221 9.57264C6.01173 9.08467 6.49175 8.81648 6.91375 8.37817C7.02419 8.26347 8.94319 6.51799 8.98033 6.35965C8.98498 6.33985 8.98929 6.26603 8.94544 6.22705C8.90158 6.18807 8.83686 6.2014 8.79015 6.212C8.72395 6.22703 7.66943 6.92403 5.62661 8.30299C5.32728 8.50852 5.05617 8.60867 4.81326 8.60342C4.54547 8.59763 4.03035 8.45201 3.64742 8.32753C3.17773 8.17485 2.80443 8.09413 2.83693 7.83484C2.85387 7.69978 3.03985 7.56166 3.39489 7.42048Z" fill="#2E3238"/>
</svg>
