<svg width="15" height="15" viewBox="0 0 15 15" fill="none" xmlns="http://www.w3.org/2000/svg">
<g clip-path="url(#clip0_101_50)">
<path fill-rule="evenodd" clip-rule="evenodd" d="M7.4975 0.375C5.72811 0.375918 4.01674 1.0026 2.6694 2.14299C1.32206 3.28338 0.426611 4.86312 0.143164 6.59972C-0.140283 8.33632 0.206754 10.1166 1.12223 11.6221C2.0377 13.1276 3.46191 14.2603 5.1402 14.8176C5.51045 14.8863 5.64992 14.6568 5.64992 14.4617C5.64992 14.2666 5.64251 13.7008 5.64004 13.0823C3.56661 13.5303 3.12847 12.2074 3.12847 12.2074C2.7903 11.3483 2.30156 11.1225 2.30156 11.1225C1.62523 10.6636 2.35217 10.6722 2.35217 10.6722C3.10132 10.7249 3.49503 11.4367 3.49503 11.4367C4.15902 12.5694 5.23893 12.2417 5.66349 12.0503C5.73014 11.5705 5.92391 11.244 6.13742 11.0587C4.48114 10.8722 2.74093 10.2365 2.74093 7.39686C2.73067 6.66041 3.00552 5.94821 3.5086 5.40762C3.43208 5.22109 3.1766 4.46761 3.58142 3.44415C3.58142 3.44415 4.20716 3.24535 5.63141 4.20377C6.85304 3.87159 8.14196 3.87159 9.3636 4.20377C10.7866 3.24535 11.4111 3.44415 11.4111 3.44415C11.8172 4.46516 11.5617 5.21864 11.4852 5.40762C11.9898 5.9483 12.2653 6.66174 12.2541 7.39932C12.2541 10.2451 10.5102 10.8722 8.85141 11.0551C9.11799 11.2858 9.35619 11.7361 9.35619 12.4283C9.35619 13.4198 9.34755 14.2175 9.34755 14.4617C9.34755 14.6592 9.48207 14.89 9.85974 14.8176C11.5382 14.2602 12.9626 13.1274 13.878 11.6216C14.7935 10.1158 15.1403 8.33528 14.8566 6.59851C14.5728 4.86175 13.6769 3.28199 12.3291 2.1418C10.9813 1.00161 9.26957 0.375336 7.49997 0.375H7.4975Z" fill="#F5F5F5"/>
<path d="M2.86684 11.0157C2.8508 11.0525 2.79155 11.0635 2.74342 11.0378C2.69529 11.012 2.6595 10.9641 2.67678 10.9261C2.69406 10.8881 2.75206 10.8782 2.8002 10.904C2.84833 10.9298 2.88535 10.9789 2.86684 11.0157Z" fill="#F5F5F5"/>
<path d="M3.16916 11.3513C3.14361 11.3641 3.11436 11.3677 3.08645 11.3614C3.05853 11.3551 3.03367 11.3394 3.01613 11.3169C2.96799 11.2654 2.95811 11.1942 2.99514 11.1623C3.03217 11.1304 3.09882 11.1451 3.14695 11.1967C3.19508 11.2482 3.20619 11.3194 3.16916 11.3513Z" fill="#F5F5F5"/>
<path d="M3.46269 11.7769C3.41703 11.8089 3.33927 11.777 3.29607 11.7131C3.28413 11.7017 3.27463 11.688 3.26814 11.6728C3.26165 11.6576 3.2583 11.6413 3.2583 11.6248C3.2583 11.6083 3.26165 11.592 3.26814 11.5768C3.27463 11.5616 3.28413 11.5479 3.29607 11.5364C3.34174 11.5057 3.41949 11.5364 3.46269 11.599C3.50589 11.6616 3.50712 11.745 3.46269 11.7769Z" fill="#F5F5F5"/>
<path d="M3.86162 12.189C3.8209 12.2344 3.73821 12.2221 3.67033 12.1608C3.60245 12.0994 3.5864 12.016 3.62713 11.9718C3.66785 11.9276 3.75055 11.9399 3.82089 12C3.89124 12.0601 3.90482 12.1448 3.86162 12.189Z" fill="#F5F5F5"/>
<path d="M4.42045 12.4293C4.40194 12.4869 4.31801 12.5127 4.23409 12.4882C4.15017 12.4636 4.09463 12.3949 4.11067 12.336C4.12672 12.2771 4.21188 12.2501 4.29703 12.2771C4.38219 12.3041 4.4365 12.3691 4.42045 12.4293Z" fill="#F5F5F5"/>
<path d="M5.0301 12.4713C5.0301 12.5314 4.96099 12.583 4.87213 12.5842C4.78327 12.5854 4.71045 12.5363 4.71045 12.4762C4.71045 12.4161 4.77956 12.3645 4.86842 12.3633C4.95728 12.3621 5.0301 12.4099 5.0301 12.4713Z" fill="#F5F5F5"/>
<path d="M5.59774 12.3767C5.60884 12.4368 5.54713 12.4994 5.45827 12.5142C5.36941 12.5289 5.29166 12.4933 5.28055 12.4344C5.26944 12.3755 5.33362 12.3117 5.42001 12.2957C5.50641 12.2798 5.58663 12.3166 5.59774 12.3767Z" fill="#F5F5F5"/>
</g>
<defs>
<clipPath id="clip0_101_50">
<rect width="15" height="15" rx="6" fill="white"/>
</clipPath>
</defs>
</svg>
