<svg width="15" height="15" viewBox="0 0 15 15" fill="none" xmlns="http://www.w3.org/2000/svg">
<rect width="15" height="15" rx="7.5" fill="#F5F5F5"/>
<path d="M10.9806 6.05685C10.9638 5.68415 10.9036 5.42914 10.8182 5.20637C10.7285 4.97658 10.6095 4.78042 10.4149 4.58707C10.2202 4.39371 10.0256 4.27182 9.79595 4.18355C9.57331 4.09668 9.31846 4.03783 8.94598 4.02102C8.57211 4.0042 8.45308 4 7.50369 4C6.5529 4 6.43388 4.0042 6.06141 4.02102C5.68893 4.03783 5.43408 4.09808 5.21144 4.18355C4.98039 4.27322 4.78435 4.39231 4.59111 4.58707C4.39787 4.78183 4.27605 4.97658 4.18783 5.20637C4.10241 5.42914 4.0422 5.68415 4.0254 6.05685C4.0086 6.43094 4.00439 6.55004 4.00439 7.5C4.00439 8.45136 4.0086 8.57046 4.0254 8.94315C4.0422 9.31585 4.10241 9.57086 4.18783 9.79364C4.27745 10.0234 4.39647 10.2196 4.59111 10.4129C4.78435 10.6077 4.98039 10.7282 5.21004 10.8165C5.43268 10.9033 5.68753 10.9622 6.06001 10.979C6.43388 10.9958 6.5529 11 7.50229 11C8.45308 11 8.57211 10.9958 8.94458 10.979C9.31706 10.9622 9.57191 10.9019 9.79455 10.8165C10.0242 10.7268 10.2202 10.6077 10.4135 10.4129C10.6067 10.2182 10.7285 10.0234 10.8168 9.79364C10.9036 9.57086 10.9624 9.31585 10.9792 8.94315C10.996 8.56906 11.0002 8.44996 11.0002 7.5C11.0002 6.55004 10.9974 6.42954 10.9806 6.05685ZM10.3519 8.91513C10.3365 9.25701 10.279 9.44335 10.2314 9.56525C10.1684 9.72778 10.0914 9.84548 9.96819 9.96878C9.84496 10.0921 9.72874 10.1663 9.56491 10.2322C9.44168 10.2798 9.25545 10.3373 8.91518 10.3527C8.5469 10.3695 8.43628 10.3737 7.50089 10.3737C6.56551 10.3737 6.45488 10.3695 6.08661 10.3527C5.74494 10.3373 5.55871 10.2798 5.43688 10.2322C5.27445 10.1691 5.15683 10.0921 5.0336 9.96878C4.91038 9.84548 4.83616 9.72918 4.77035 9.56525C4.72274 9.44195 4.66533 9.2556 4.64992 8.91513C4.63312 8.54664 4.62892 8.43595 4.62892 7.5C4.62892 6.56405 4.63312 6.45336 4.64992 6.08487C4.66533 5.74299 4.72274 5.55665 4.77035 5.43475C4.83336 5.27222 4.91038 5.15452 5.0336 5.03123C5.15683 4.90793 5.27305 4.83367 5.43688 4.76781C5.56011 4.72018 5.74634 4.66273 6.08661 4.64732C6.45488 4.6305 6.56551 4.6263 7.50089 4.6263C8.43628 4.6263 8.5469 4.6305 8.91518 4.64732C9.25685 4.66273 9.44308 4.72018 9.56491 4.76781C9.72734 4.83086 9.84496 4.90793 9.96819 5.03123C10.0914 5.15452 10.1656 5.27082 10.2314 5.43475C10.279 5.55805 10.3365 5.7444 10.3519 6.08487C10.3687 6.45336 10.3729 6.56405 10.3729 7.5C10.3729 8.43595 10.3673 8.54664 10.3519 8.91513Z" fill="#2E3238"/>
<path d="M7.50108 5.70117C6.50689 5.70117 5.70312 6.50682 5.70312 7.50021C5.70312 8.49501 6.50829 9.29925 7.50108 9.29925C8.49388 9.29925 9.29904 8.4922 9.29904 7.50021C9.29904 6.50542 8.49528 5.70117 7.50108 5.70117ZM7.50108 8.66734C6.85696 8.66734 6.33465 8.14473 6.33465 7.50021C6.33465 6.8557 6.85696 6.33308 7.50108 6.33308C8.14521 6.33308 8.66752 6.8557 8.66752 7.50021C8.66752 8.14473 8.14521 8.66734 7.50108 8.66734Z" fill="#2E3238"/>
<path d="M9.36881 6.05161C9.60082 6.05161 9.7889 5.86342 9.7889 5.63127C9.7889 5.39913 9.60082 5.21094 9.36881 5.21094C9.13681 5.21094 8.94873 5.39913 8.94873 5.63127C8.94873 5.86342 9.13681 6.05161 9.36881 6.05161Z" fill="#2E3238"/>
<path d="M4 7.5C4 8.45136 4.0042 8.57046 4.021 8.94315C4.03781 9.31585 4.09802 9.57086 4.18344 9.79364C4.27305 10.0234 4.39208 10.2196 4.58672 10.4129C4.77996 10.6063 4.976 10.7282 5.20564 10.8165C5.42829 10.9033 5.68314 10.9622 6.05561 10.979C6.42949 10.9958 6.54851 11 7.4979 11C8.44869 11 8.56771 10.9958 8.94019 10.979C9.31266 10.9622 9.56751 10.9019 9.79016 10.8165C10.0198 10.7268 10.2158 10.6077 10.4091 10.4129C10.6023 10.2196 10.7241 10.0234 10.8124 9.79364C10.8992 9.57086 10.958 9.31585 10.9748 8.94315C10.9916 8.56906 10.9958 8.44996 10.9958 7.5C10.9958 6.54864 10.9916 6.42954 10.9748 6.05685C10.958 5.68415 10.8978 5.42914 10.8124 5.20637C10.7227 4.97658 10.6037 4.78042 10.4091 4.58707C10.2172 4.39231 10.0212 4.27182 9.79156 4.18355C9.56891 4.09668 9.31406 4.03783 8.94159 4.02102C8.56771 4.0042 8.44869 4 7.4993 4C6.54851 4 6.42949 4.0042 6.05701 4.02102C5.68454 4.03783 5.42969 4.09808 5.20704 4.18355C4.9774 4.27322 4.78136 4.39231 4.58812 4.58707C4.39488 4.78183 4.27305 4.97658 4.18484 5.20637C4.09802 5.42914 4.03781 5.68415 4.021 6.05685C4.0042 6.42954 4 6.54864 4 7.5ZM4.63153 7.5C4.63153 6.56545 4.63573 6.45336 4.65253 6.08487C4.66793 5.74299 4.72535 5.55665 4.77295 5.43475C4.83597 5.27222 4.91298 5.15452 5.03621 5.03123C5.15943 4.90793 5.27566 4.83367 5.43949 4.76781C5.56271 4.72018 5.74895 4.66273 6.08922 4.64732C6.45749 4.6305 6.56811 4.6263 7.5035 4.6263C8.43889 4.6263 8.54951 4.6305 8.91778 4.64732C9.25945 4.66273 9.44569 4.72018 9.56751 4.76781C9.72995 4.83086 9.84757 4.90793 9.97079 5.03123C10.094 5.15452 10.1682 5.27082 10.234 5.43475C10.2817 5.55805 10.3391 5.7444 10.3545 6.08487C10.3713 6.45336 10.3755 6.56405 10.3755 7.5C10.3755 8.43595 10.3713 8.54664 10.3545 8.91513C10.3391 9.25701 10.2817 9.44335 10.234 9.56525C10.171 9.72778 10.094 9.84548 9.97079 9.96878C9.84757 10.0921 9.73135 10.1663 9.56751 10.2322C9.44429 10.2798 9.25805 10.3373 8.91778 10.3527C8.54951 10.3695 8.43889 10.3737 7.5035 10.3737C6.56811 10.3737 6.45749 10.3695 6.08922 10.3527C5.74755 10.3373 5.56131 10.2798 5.43949 10.2322C5.27706 10.1691 5.15943 10.0921 5.03621 9.96878C4.91298 9.84548 4.83877 9.72918 4.77295 9.56525C4.72535 9.44195 4.66793 9.2556 4.65253 8.91513C4.63433 8.54664 4.63153 8.43455 4.63153 7.5Z" fill="#2E3238"/>
</svg>
